<svg width="70" height="70" viewBox="0 0 70 70" fill="none" xmlns="http://www.w3.org/2000/svg">
<rect width="70" height="70" rx="10" fill="#FAA9E4"/>
<path d="M35.0004 24.6908C29.3068 24.6908 24.6913 29.3063 24.6913 34.9999V36.1454H22.4004V34.9999C22.4004 28.0411 28.0416 22.3999 35.0004 22.3999C39.2633 22.3999 43.03 24.5167 45.3095 27.754V23.5454H47.6004V31.5635H39.5822V29.2726H43.5738C41.7236 26.5086 38.5734 24.6908 35.0004 24.6908Z" fill="#96006D"/>
<path d="M47.6003 33.8544V34.9999C47.6003 41.9587 41.9591 47.5999 35.0003 47.5999C30.7375 47.5999 26.9708 45.4831 24.6913 42.2459V46.4544H22.4004V38.4363H30.4186V40.7272H26.4269C28.2771 43.4912 31.4274 45.309 35.0003 45.309C40.6939 45.309 45.3094 40.6935 45.3094 34.9999V33.8544H47.6003Z" fill="#96006D"/>
</svg>
