<svg width="70" height="70" viewBox="0 0 70 70" fill="none" xmlns="http://www.w3.org/2000/svg">
<rect width="70" height="70" rx="10" fill="#FFD978"/>
<path d="M24.1114 22.3999L31.3707 29.6592V25.3208H33.7905V33.79H25.3213V31.3702H29.6597L22.4004 24.1109L24.1114 22.3999Z" fill="#7C5900"/>
<path d="M47.6004 24.1109L40.3411 31.3702H44.6795V33.79L36.2103 33.79V25.3208H38.63V29.6592L45.8894 22.3999L47.6004 24.1109Z" fill="#7C5900"/>
<path d="M25.3213 36.2098H33.7905V44.679H31.3707V40.3406L24.1114 47.5999L22.4004 45.8889L29.6597 38.6296H25.3213V36.2098Z" fill="#7C5900"/>
<path d="M36.2103 36.2098H44.6795V38.6296H40.3411L47.6004 45.8889L45.8894 47.5999L38.63 40.3406V44.679H36.2103V36.2098Z" fill="#7C5900"/>
</svg>
