<svg width="70" height="70" viewBox="0 0 70 70" fill="none" xmlns="http://www.w3.org/2000/svg">
<rect width="70" height="70" rx="10" fill="#FFA666"/>
<path fill-rule="evenodd" clip-rule="evenodd" d="M29.8064 38.7799C28.4146 38.7799 27.2864 37.6517 27.2864 36.2599C27.2864 34.8681 28.4146 33.7399 29.8064 33.7399C30.0285 33.7399 30.244 33.7687 30.4492 33.8226L33.6625 30.6093C33.6048 30.3977 33.5741 30.175 33.5741 29.9451C33.5741 28.5534 34.7023 27.4251 36.0941 27.4251C37.4858 27.4251 38.6141 28.5534 38.6141 29.9451C38.6141 30.6277 38.3427 31.2469 37.9019 31.7007L39.2229 36.324C40.3258 36.5926 41.1445 37.5869 41.1445 38.7725C41.1445 40.1643 40.0163 41.2925 38.6245 41.2925C37.4476 41.2925 36.4591 40.4857 36.182 39.3949L31.5563 38.0733C31.103 38.5108 30.4861 38.7799 29.8064 38.7799ZM32.2524 35.6513L36.7794 36.9448L35.4778 32.3892C35.4695 32.3872 35.4612 32.385 35.4529 32.3828L32.2384 35.5973C32.2432 35.6153 32.2479 35.6333 32.2524 35.6513Z" fill="#9B4100"/>
<path fill-rule="evenodd" clip-rule="evenodd" d="M20.7988 34.9999L27.7988 22.3999H41.8816L48.8816 34.9999L41.8816 47.5999H27.7988L20.7988 34.9999ZM23.6816 34.9999L29.2816 45.0799H40.3988L45.9988 34.9999L40.3988 24.9199H29.2816L23.6816 34.9999Z" fill="#9B4100"/>
</svg>
